<?xml version="1.0" encoding="UTF-8"?>
<svg data-bbox="0 0 994 632.8" viewBox="0 0 994 632.8" xmlns="http://www.w3.org/2000/svg" data-type="color">
    <g>
        <path d="M36.7 632.8c-10.6 0-19.37-3.5-26.3-10.5S0 606.73 0 596.6s3.47-18.7 10.4-25.7 15.7-10.5 26.3-10.5c6.46 0 12.4 1.55 17.8 4.65 5.4 3.1 9.57 7.28 12.5 12.55l-6.2 3.6c-2.2-4.27-5.47-7.67-9.8-10.2-4.33-2.53-9.1-3.8-14.3-3.8-8.73 0-15.87 2.83-21.4 8.5-5.53 5.67-8.3 12.63-8.3 20.9s2.77 15.23 8.3 20.9c5.53 5.67 12.67 8.5 21.4 8.5 5.2 0 9.96-1.27 14.3-3.8 4.33-2.53 7.6-5.93 9.8-10.2l6.2 3.5c-2.87 5.27-7.02 9.47-12.45 12.6-5.43 3.13-11.38 4.7-17.85 4.7Z" fill="#113c4d" data-color="1"/>
        <path d="M166.3 622.25c-7 7.03-15.57 10.55-25.7 10.55s-18.7-3.52-25.7-10.55c-7-7.03-10.5-15.58-10.5-25.65s3.5-18.62 10.5-25.65c7-7.03 15.57-10.55 25.7-10.55s18.7 3.52 25.7 10.55c7 7.04 10.5 15.58 10.5 25.65s-3.5 18.62-10.5 25.65Zm-46.5-4.8c5.6 5.7 12.53 8.55 20.8 8.55s15.2-2.85 20.8-8.55c5.6-5.7 8.4-12.65 8.4-20.85s-2.8-15.15-8.4-20.85c-5.6-5.7-12.53-8.55-20.8-8.55s-15.2 2.85-20.8 8.55c-5.6 5.7-8.4 12.65-8.4 20.85s2.8 15.15 8.4 20.85Z" fill="#113c4d" data-color="1"/>
        <path d="M263.7 561.6h7v70h-6l-39-57v57h-7v-70h6.1l38.9 56.85V561.6Z" fill="#113c4d" data-color="1"/>
        <path d="M337.6 632.8c-6.4 0-11.88-1.52-16.45-4.55-4.57-3.03-7.75-7.22-9.55-12.55l6-3.5c1.27 4.33 3.6 7.72 7 10.15 3.4 2.43 7.77 3.65 13.1 3.65s9.25-1.15 12.15-3.45c2.9-2.3 4.35-5.35 4.35-9.15s-1.33-6.43-4-8.3c-2.67-1.87-7.07-3.8-13.2-5.8-7.27-2.4-12.07-4.33-14.4-5.8-5.33-3.2-8-7.83-8-13.9s2.07-10.62 6.2-14.05c4.13-3.43 9.23-5.15 15.3-5.15 5.47 0 10.2 1.42 14.2 4.25s6.96 6.45 8.9 10.85l-5.9 3.3c-3.2-7.73-8.93-11.6-17.2-11.6-4.33 0-7.83 1.07-10.5 3.2s-4 5.1-4 8.9c0 3.47 1.2 6.07 3.6 7.8 2.4 1.73 6.37 3.5 11.9 5.3 2.53.87 4.35 1.48 5.45 1.85 1.1.37 2.7.97 4.8 1.8 2.1.83 3.65 1.57 4.65 2.2 1 .63 2.22 1.5 3.65 2.6 1.43 1.1 2.47 2.2 3.1 3.3.63 1.1 1.2 2.43 1.7 4 .5 1.57.75 3.25.75 5.05 0 5.93-2.17 10.68-6.5 14.25-4.33 3.57-10.03 5.35-17.1 5.35Z" fill="#113c4d" data-color="1"/>
        <path d="M446.9 626c-4.8 4.53-11.07 6.8-18.8 6.8s-14-2.27-18.8-6.8c-4.8-4.53-7.2-10.6-7.2-18.2v-46.2h7v46.2c0 5.6 1.67 10.03 5 13.3 3.33 3.27 8 4.9 14 4.9s10.67-1.63 14-4.9c3.33-3.27 5-7.7 5-13.3v-46.2h7v46.2c0 7.6-2.4 13.67-7.2 18.2Z" fill="#113c4d" data-color="1"/>
        <path d="M506 625h32v6.6h-39v-70h7V625Z" fill="#113c4d" data-color="1"/>
        <path d="M614.9 561.6v6.6h-21.5v63.4h-7v-63.4h-21.5v-6.6h50Z" fill="#113c4d" data-color="1"/>
        <path d="m696.4 631.6-6.49-17.2h-33.22l-6.49 17.2h-7.4l26.9-70h7.2l26.9 70h-7.4Zm-37.22-23.8h28.24l-14.12-37.43-14.12 37.43Z" fill="#113c4d" data-color="1"/>
        <path d="M787.7 561.6h7v70h-6l-39-57v57h-7v-70h6.1l38.9 56.85V561.6Z" fill="#113c4d" data-color="1"/>
        <path d="M873.3 632.8c-10.6 0-19.37-3.5-26.3-10.5s-10.4-15.57-10.4-25.7 3.47-18.7 10.4-25.7 15.7-10.5 26.3-10.5c6.47 0 12.4 1.55 17.8 4.65 5.4 3.1 9.57 7.28 12.5 12.55l-6.2 3.6c-2.2-4.27-5.47-7.67-9.8-10.2-4.33-2.53-9.1-3.8-14.3-3.8-8.73 0-15.87 2.83-21.4 8.5-5.53 5.67-8.3 12.63-8.3 20.9s2.77 15.23 8.3 20.9c5.53 5.67 12.67 8.5 21.4 8.5 5.2 0 9.97-1.27 14.3-3.8s7.6-5.93 9.8-10.2l6.2 3.5c-2.87 5.27-7.02 9.47-12.45 12.6-5.43 3.13-11.38 4.7-17.85 4.7Z" fill="#113c4d" data-color="1"/>
        <path d="m994 561.6-25.3 41.3v28.7h-7v-28.9l-25.2-41.1h7.9l20.92 34.31 20.78-34.31h7.9Z" fill="#113c4d" data-color="1"/>
        <path d="M438.27 314.61c0 3.18-1.27 5.73-3.82 7.01-2.55 1.27-5.73 1.27-8.28-.64L102.64 82.16c-3.82 7.64-7.01 15.29-9.55 22.93l337.54 249.02c2.55 1.91 3.18 5.09 2.55 7.64-3.18 13.37-8.92 26.11-15.29 37.58-1.27 1.91-3.18 3.18-5.09 3.82-1.91 0-3.82 0-5.73-1.27L90.54 175.14c4.46 16.56 14.01 35.66 33.75 50.31l266.85 196.16c1.91 1.27 2.55 3.18 3.18 5.1 0 1.91-.64 4.46-2.55 5.73-27.39 26.75-63.05 40.76-103.17 40.76h-68.78c-82.79 0-129.29-59.23-143.93-110.18-1.27-3.82 1.27-7.64 5.09-8.92 3.82-1.27 7.64 1.27 8.92 5.09 13.37 45.85 55.41 99.35 129.92 99.35h68.78c33.12 0 63.05-10.19 86.61-30.57L116.02 236.92c-24.2-17.83-40.12-45.85-43.31-77.7 0-2.55 1.27-5.73 3.82-7.01s5.09-1.27 7.64.64l324.8 232.46c3.82-7 6.37-14.65 8.92-22.29L80.35 114c-2.55-1.91-3.82-5.1-2.55-8.28 3.18-13.37 8.92-26.11 16.56-38.21.64-1.27 2.55-2.55 4.46-3.18 1.91 0 4.46 0 5.73 1.27l316.52 233.73c-5.09-23.56-18.47-43.94-37.58-57.96L120.47 47.13c-1.27-1.27-2.55-3.18-2.55-5.1s.64-4.46 1.91-5.73C145.95 12.74 178.43 0 214.73 0h78.97c73.88 0 121.64 54.13 136.93 108.27 1.27 3.82-1.27 7.64-5.1 8.92-3.82 1.27-7.64-1.27-8.92-5.09-12.74-45.22-52.22-97.44-122.92-97.44h-78.97c-29.3 0-56.04 8.92-78.34 26.75L392.4 229.92c26.75 19.74 43.31 49.68 45.85 84.7Z" fill="#000000" data-color="2"/>
        <path d="M563.1 352.83c1.27 3.82-.64 7.64-3.82 9.55-1.27.64-1.91.64-3.18.64-2.55 0-5.09-1.91-6.37-4.46-10.83-24.2-15.92-49.68-15.92-75.79V7.01c0-3.82 3.18-7.01 7.01-7.01 4.46 0 7.64 3.18 7.64 7.01v275.77c0 24.2 4.46 47.76 14.65 70.05Zm349.01-206.99L586.03 391.67c5.09 6.37 10.19 12.1 15.92 17.2l301.88-226.73c1.91-1.91 5.09-1.91 7.64-1.27 2.55 1.27 3.82 3.82 3.82 7.01v47.13c0 2.55-1.27 4.46-3.18 5.73L647.17 440.72c8.28 3.82 16.56 7.64 25.47 10.19l231.18-174.5c1.91-1.27 5.09-1.91 7.64-.64s3.82 3.82 3.82 7.01v47.13c0 2.55-1.27 4.46-3.18 5.73L750.97 457.28c30.57-4.46 58.59-15.92 83.43-35.03l69.42-51.59c1.91-1.91 5.09-1.91 7.64-1.27 2.55 1.27 3.82 3.82 3.82 7v89.8c0 3.82-3.18 7.01-7.01 7.01-4.46 0-7.64-3.18-7.64-7.01V390.4l-57.32 43.94c-33.75 25.48-73.88 38.85-115.91 38.85-1.27 0-2.55 0-3.18-.64s-1.27-.64-1.27-1.27c-.64 0-1.27-.64-1.27-.64V470c-.64 0-.64-.64-.64-.64v-.64c-.64 0-.64-.64-.64-.64v-5.09h.64v-1.27h.64s0-.64.64-.64v-.64s.64 0 .64-.64l177.69-133.74v-29.3L678.38 464.89c-1.91 1.27-4.46 1.27-6.37.64-14.65-3.82-28.66-10.19-42.03-17.2-1.91-1.27-3.82-3.82-3.82-6.37 0-1.91 1.27-4.46 3.18-5.73l271.31-205.07v-29.3L605.78 424.13c-2.55 2.55-6.37 1.91-8.92 0-10.19-8.92-19.11-19.11-26.75-29.93-2.55-3.18-1.91-7.64 1.27-9.55l329.26-247.74V7.01c0-3.82 3.18-7.01 7.64-7.01 3.82 0 7.01 3.18 7.01 7.01v133.11c0 2.55-1.27 4.46-3.18 5.73Z" fill="#000000" data-color="2"/>
        <path d="M438.27 314.61c0 3.18-1.27 5.73-3.82 7.01-2.55 1.27-5.73 1.27-8.28-.64L102.64 82.16c-3.82 7.64-7.01 15.29-9.55 22.93l337.54 249.02c2.55 1.91 3.18 5.09 2.55 7.64-3.18 13.37-8.92 26.11-15.29 37.58-1.27 1.91-3.18 3.18-5.09 3.82-1.91 0-3.82 0-5.73-1.27L90.54 175.14c4.46 16.56 14.01 35.66 33.75 50.31l266.85 196.16c1.91 1.27 2.55 3.18 3.18 5.1 0 1.91-.64 4.46-2.55 5.73-27.39 26.75-63.05 40.76-103.17 40.76h-68.78c-82.79 0-129.29-59.23-143.93-110.18-1.27-3.82 1.27-7.64 5.09-8.92 3.82-1.27 7.64 1.27 8.92 5.09 13.37 45.85 55.41 99.35 129.92 99.35h68.78c33.12 0 63.05-10.19 86.61-30.57L116.02 236.92c-24.2-17.83-40.12-45.85-43.31-77.7 0-2.55 1.27-5.73 3.82-7.01s5.09-1.27 7.64.64l324.8 232.46c3.82-7 6.37-14.65 8.92-22.29L80.35 114c-2.55-1.91-3.82-5.1-2.55-8.28 3.18-13.37 8.92-26.11 16.56-38.21.64-1.27 2.55-2.55 4.46-3.18 1.91 0 4.46 0 5.73 1.27l316.52 233.73c-5.09-23.56-18.47-43.94-37.58-57.96L120.47 47.13c-1.27-1.27-2.55-3.18-2.55-5.1s.64-4.46 1.91-5.73C145.95 12.74 178.43 0 214.73 0h78.97c73.88 0 121.64 54.13 136.93 108.27 1.27 3.82-1.27 7.64-5.1 8.92-3.82 1.27-7.64-1.27-8.92-5.09-12.74-45.22-52.22-97.44-122.92-97.44h-78.97c-29.3 0-56.04 8.92-78.34 26.75L392.4 229.92c26.75 19.74 43.31 49.68 45.85 84.7Z" fill="#113c4d" data-color="1"/>
        <path d="M563.1 352.83c1.27 3.82-.64 7.64-3.82 9.55-1.27.64-1.91.64-3.18.64-2.55 0-5.09-1.91-6.37-4.46-10.83-24.2-15.92-49.68-15.92-75.79V7.01c0-3.82 3.18-7.01 7.01-7.01 4.46 0 7.64 3.18 7.64 7.01v275.77c0 24.2 4.46 47.76 14.65 70.05Zm349.01-206.99L586.03 391.67c5.09 6.37 10.19 12.1 15.92 17.2l301.88-226.73c1.91-1.91 5.09-1.91 7.64-1.27 2.55 1.27 3.82 3.82 3.82 7.01v47.13c0 2.55-1.27 4.46-3.18 5.73L647.17 440.72c8.28 3.82 16.56 7.64 25.47 10.19l231.18-174.5c1.91-1.27 5.09-1.91 7.64-.64s3.82 3.82 3.82 7.01v47.13c0 2.55-1.27 4.46-3.18 5.73L750.97 457.28c30.57-4.46 58.59-15.92 83.43-35.03l69.42-51.59c1.91-1.91 5.09-1.91 7.64-1.27 2.55 1.27 3.82 3.82 3.82 7v89.8c0 3.82-3.18 7.01-7.01 7.01-4.46 0-7.64-3.18-7.64-7.01V390.4l-57.32 43.94c-33.75 25.48-73.88 38.85-115.91 38.85-1.27 0-2.55 0-3.18-.64s-1.27-.64-1.27-1.27c-.64 0-1.27-.64-1.27-.64V470c-.64 0-.64-.64-.64-.64v-.64c-.64 0-.64-.64-.64-.64v-5.09h.64v-1.27h.64s0-.64.64-.64v-.64s.64 0 .64-.64l177.69-133.74v-29.3L678.38 464.89c-1.91 1.27-4.46 1.27-6.37.64-14.65-3.82-28.66-10.19-42.03-17.2-1.91-1.27-3.82-3.82-3.82-6.37 0-1.91 1.27-4.46 3.18-5.73l271.31-205.07v-29.3L605.78 424.13c-2.55 2.55-6.37 1.91-8.92 0-10.19-8.92-19.11-19.11-26.75-29.93-2.55-3.18-1.91-7.64 1.27-9.55l329.26-247.74V7.01c0-3.82 3.18-7.01 7.64-7.01 3.82 0 7.01 3.18 7.01 7.01v133.11c0 2.55-1.27 4.46-3.18 5.73Z" fill="#113c4d" data-color="1"/>
    </g>
</svg>
