<?xml version="1.0" encoding="UTF-8"?>
<svg id="Layer_2" data-name="Layer 2" xmlns="http://www.w3.org/2000/svg" viewBox="0 0 1000 1000">
  <defs>
    <style>
      .cls-1 {
        isolation: isolate;
        opacity: .1;
      }

      .cls-2 {
        fill: #2f2e41;
      }

      .cls-3 {
        fill: #00b8d2;
      }

      .cls-4 {
        fill: #e6e6e6;
      }

      .cls-5 {
        fill: #ffb6b6;
      }

      .cls-6 {
        fill: #3f3d56;
      }

      .cls-7 {
        fill: #f6fbff;
      }

      .cls-8 {
        fill: #fff;
      }
    </style>
  </defs>
  <g id="Layer_1-2" data-name="Layer 1">
    <circle class="cls-7" cx="500" cy="500" r="500"/>
    <g>
      <path class="cls-3" d="M350.87,677.89h-97.7c-2.46,0-4.47-2-4.47-4.47s2-4.47,4.47-4.47h97.7c2.46,0,4.47,2,4.47,4.47s-2,4.47-4.47,4.47"/>
      <path class="cls-6" d="M176.37,701.81c0,.8.64,1.45,1.45,1.45h248.39c.8,0,1.45-.64,1.45-1.45s-.64-1.45-1.45-1.45h-248.39c-.8,0-1.45.64-1.45,1.45"/>
      <path class="cls-3" d="M779.47,331.24c0,43.65-35.38,79.03-79.03,79.03s-79.03-35.38-79.03-79.03,35.38-79.03,79.03-79.03,79.03,35.38,79.03,79.03"/>
      <path class="cls-6" d="M110,801.67c0,.8.64,1.45,1.45,1.45h635.04c.8,0,1.45-.64,1.45-1.45s-.64-1.45-1.45-1.45H111.45c-.8,0-1.45.64-1.45,1.45"/>
      <path class="cls-6" d="M119.19,703.96l-2.03-2.23,198.26-180.92,71.43,32.02,77.14-132.28,63.37-30.55,58.72,97.86c31.7-82.07,111.2-167.93,206.47-255.05l2.34,1.9c-89.35,85.54-165.79,171.47-209.18,258.4l-54.31-90.78c-2.57-4.29-7.96-5.94-12.49-3.84-34.64,16.12-63.54,42.43-82.82,75.41l-48.32,82.64-11.03-4.94c-36.89-16.54-80.07-9.61-109.93,17.64l-147.62,134.71Z"/>
      <path class="cls-6" d="M797.02,249.3l-3.01.21-4.86-10.53-10.87-2.21-.42-2.99,17.93-2.55,1.24,18.06Z"/>
      <path class="cls-5" d="M487.75,313.71l10.66-40.97,41.52-2,12.42,56.48-64.6-13.51Z"/>
      <path class="cls-1" d="M487.75,313.71l10.66-40.97,41.52-2,12.42,56.48-64.6-13.51Z"/>
      <path class="cls-5" d="M565.19,245.55c0,27.68-22.44,50.11-50.11,50.11s-50.11-22.44-50.11-50.11,22.44-50.11,50.11-50.11,50.11,22.44,50.11,50.11"/>
      <path class="cls-2" d="M542.72,256.16s-19.04-37.72-41.34-35.54-34.06,4.83-34.06,4.83c0,0-6.62-29.38,24.55-40.68,0,0-39.64-39.07,7.55-58.24s73.6,5.28,73.6,5.28c0,0,34.93,34.87-9.06,60.93,0,0,32.67,43.94-6.88,80.16,0,0,8.85-29.31-.38-23.9-9.23,5.41-13.97,7.17-13.97,7.17"/>
      <path class="cls-2" d="M459.78,520.93l-6.67,6.39-48.16,103.26-5.27,170.8h80.91l37.95-84.58,25.57,83.76h72.75l16.86-152.06-45.34-107.54-128.63-20.03Z"/>
      <path class="cls-4" d="M543.6,309.55h-54.03l-58.78,31.63,13.71,61.15s-3.16,36.9,4.22,64.31c7.38,27.41,4.22,63.26,4.22,63.26l135.48,11.07,4.22-124.41-2.11-83.29-46.92-23.72Z"/>
      <path class="cls-4" d="M439.75,341.7s-32.68,1.05-37.95,22.14-9.49,129.68-9.49,129.68c0,0,3.16,64.44,38.48,33.8,35.32-30.64,32.16-123.42,32.16-123.42l-23.2-62.2Z"/>
      <path class="cls-8" d="M756.76,879.59h-192.61c-6.52,0-11.83-5.31-11.83-11.83v-199.11c0-6.52,5.31-11.83,11.83-11.83h192.61c6.52,0,11.83,5.31,11.83,11.83v199.11c0,6.52-5.31,11.83-11.83,11.83"/>
      <path class="cls-6" d="M756.76,880.81h-192.61c-7.19,0-13.05-5.85-13.05-13.05v-199.11c0-7.19,5.85-13.05,13.05-13.05h192.61c7.19,0,13.05,5.85,13.05,13.05v199.11c0,7.19-5.85,13.05-13.05,13.05M564.15,658.04c-5.85,0-10.61,4.76-10.61,10.61v199.11c0,5.85,4.76,10.61,10.61,10.61h192.61c5.85,0,10.61-4.76,10.61-10.61v-199.11c0-5.85-4.76-10.61-10.61-10.61h-192.61Z"/>
      <path class="cls-3" d="M668.06,827.28h-15.87c-1.93,0-3.51-1.21-3.51-2.71v-68.35c0-1.49,1.57-2.71,3.51-2.71h15.87c1.93,0,3.51,1.21,3.51,2.71v68.35c0,1.49-1.57,2.71-3.51,2.71"/>
      <path class="cls-3" d="M615.57,787.01c-1.56,0-2.83.98-2.83,2.19v35.31c0,1.2,1.27,2.19,2.83,2.19h15.87c1.56,0,2.83-.98,2.83-2.19v-35.31c0-1.21-1.27-2.19-2.83-2.19h-15.87Z"/>
      <path class="cls-3" d="M704.66,827.28h-15.87c-1.93,0-3.5-1.21-3.5-2.71v-112.01c0-1.49,1.57-2.71,3.5-2.71h15.87c1.93,0,3.51,1.21,3.51,2.71v112.01c0,1.49-1.57,2.71-3.51,2.71"/>
      <path class="cls-3" d="M363.05,336.31h-18.13c-2.21,0-4-1.39-4-3.09v-78.07c0-1.7,1.8-3.09,4-3.09h18.13c2.21,0,4,1.39,4,3.09v78.07c0,1.7-1.8,3.09-4,3.09"/>
      <path class="cls-3" d="M303.1,290.31c-1.78,0-3.24,1.12-3.24,2.5v40.33c0,1.38,1.45,2.5,3.23,2.5h18.13c1.78,0,3.24-1.12,3.24-2.5v-40.33c0-1.38-1.45-2.5-3.23-2.5h-18.13Z"/>
      <path class="cls-3" d="M404.87,336.31h-18.13c-2.21,0-4-1.39-4-3.09v-127.94c0-1.7,1.8-3.09,4-3.09h18.13c2.21,0,4,1.39,4,3.09v127.94c0,1.7-1.8,3.09-4,3.09"/>
      <path class="cls-5" d="M630.93,685.79c9.39-.9,15.86-13.59,14.45-28.35-.48-5.91-2.37-11.61-5.51-16.63l-1.81-16.71.28-.08,4.55-79.22c1.06-18.42-6.23-36.52-20.28-48.48-8.36-7.12-17.27-10.72-23-1.73-9.51,14.92,2.81,76.41,10.9,111.38l3.14,37.36c-2.13,5.53-2.91,11.49-2.26,17.38,1.41,14.76,10.17,25.99,19.56,25.09"/>
      <path class="cls-4" d="M578.92,335.38s27.41-10.54,40.06,21.09c12.65,31.63,26.36,187.67,26.36,187.67l-64.31-11.6-2.11-197.15Z"/>
      <path class="cls-4" d="M202.52,319.9h-36.91c-2.46,0-4.47-2-4.47-4.47s2-4.47,4.47-4.47h36.91c2.46,0,4.47,2,4.47,4.47s-2,4.47-4.47,4.47"/>
      <path class="cls-4" d="M202.52,256.58h-36.91c-2.46,0-4.47-2-4.47-4.47s2-4.47,4.47-4.47h36.91c2.46,0,4.47,2,4.47,4.47s-2,4.47-4.47,4.47"/>
      <path class="cls-4" d="M202.52,210.92h-36.91c-2.46,0-4.47-2-4.47-4.47s2-4.47,4.47-4.47h36.91c2.46,0,4.47,2,4.47,4.47s-2,4.47-4.47,4.47"/>
      <path class="cls-6" d="M159.66,336.54c0,.8.64,1.45,1.45,1.45h248.39c.8,0,1.45-.64,1.45-1.45s-.64-1.45-1.45-1.45h-248.39c-.8,0-1.45.64-1.45,1.45"/>
      <path class="cls-6" d="M638.71,711.02c0,.8.64,1.45,1.45,1.45h248.39c.8,0,1.45-.64,1.45-1.45s-.64-1.45-1.45-1.45h-248.39c-.8,0-1.45.64-1.45,1.45"/>
      <path class="cls-6" d="M565.76,828.96c0,.8.64,1.45,1.45,1.45h248.39c.8,0,1.45-.64,1.45-1.45s-.64-1.45-1.45-1.45h-248.39c-.8,0-1.45.64-1.45,1.45"/>
      <path class="cls-5" d="M398.73,329.22c-9.39.9-15.86,13.59-14.45,28.35.48,5.91,2.37,11.61,5.51,16.63l1.81,16.71-.28.08-4.55,79.22c-1.06,18.42,6.23,36.52,20.28,48.48,8.36,7.12,17.27,10.72,23.01,1.73,9.51-14.92-2.81-76.41-10.9-111.37l-3.14-37.36c2.13-5.53,2.91-11.49,2.26-17.38-1.41-14.76-10.17-25.99-19.56-25.09"/>
    </g>
  </g>
</svg>