<?xml version="1.0" encoding="UTF-8"?>
<svg id="Layer_2" data-name="Layer 2" xmlns="http://www.w3.org/2000/svg" viewBox="0 0 1000 1000">
  <defs>
    <style>
      .cls-1 {
        fill: #f2f2f2;
        isolation: isolate;
      }

      .cls-2 {
        fill: #2f2e41;
      }

      .cls-3 {
        fill: #00b8d2;
      }

      .cls-4 {
        fill: #e6e6e6;
      }

      .cls-5 {
        fill: #ffb6b6;
      }

      .cls-6 {
        fill: #3f3d56;
      }

      .cls-7 {
        fill: #ccc;
      }

      .cls-8 {
        fill: #f6fbff;
      }

      .cls-9 {
        fill: #fff;
      }

      .cls-10 {
        fill: #a0616a;
      }
    </style>
  </defs>
  <g id="Layer_1-2" data-name="Layer 1">
    <circle class="cls-8" cx="500" cy="500" r="500"/>
    <g>
      <path class="cls-10" d="M228.64,495.88c-4.63-4.22-4.96-11.4-.73-16.02.45-.49.94-.95,1.47-1.35l-12.7-38.26,20.23,5.43,8.96,35.5c3.5,5.24,2.08,12.32-3.16,15.82-4.38,2.93-10.2,2.47-14.07-1.11"/>
      <path class="cls-3" d="M265.3,288.03c3.36,1.92,23.22-2.84,27.1-1.49-2.14,13.06,9.49,8.16-3.14,25.32-12.63,17.16-38.06,68.59-43.84,87.82-5.78,19.22-.06,46.32-.92,55.43-.42,5.28-.39,10.58.08,15.86-6.82-.09-13.55,1.33-20.48.42-7.39-20.91-12.36-50.67-15.73-67.12s-3.5-9.49-1.95-17.72,1.92-2.25.3-10.12,4.95-17.75,11.02-23.39c2.62-7.53,6.01-14.56,8.6-22.01,19-16.57,20.25-26.15,38.97-43"/>
      <path class="cls-5" d="M817.31,820.79h-16.79l-7.99-64.75h24.78v64.75Z"/>
      <path class="cls-2" d="M821.59,837.06h-54.13v-.69c0-11.63,9.43-21.07,21.07-21.07h0l9.89-7.5,18.45,7.5h4.72v21.75Z"/>
      <path class="cls-5" d="M739.33,820.79h-16.79l-7.99-64.75h24.77v64.75Z"/>
      <path class="cls-2" d="M743.61,837.06h-54.13v-.69c0-11.63,9.43-21.07,21.07-21.07l9.89-7.5,18.45,7.5h4.72v21.75Z"/>
      <path class="cls-2" d="M732.06,466.82l109.18,2.73c20.74,11.26,21.05,35.64,14.26,64.58,0,0,2.29,17.2-2.29,21.79-4.59,4.59-6.88,4.59-4.59,12.61,2.29,8.03-9.83,21.14-8.35,22.61,1.47,1.47,4.91,9.5,4.91,9.5l-11.47,65.37s-8.03,113.54-10.32,115.83c-2.29,2.29-4.59,0-2.29,5.73,2.29,5.73,4.59,3.44,2.29,5.73-2.03,2.19-3.95,4.49-5.73,6.88h-27.73s-2.09-11.47-2.09-12.62-2.29-8.03-2.29-9.17,2.03-3.17,2.03-3.17c.7-2.33,1.17-4.73,1.41-7.15,0-2.29,6.88-90.6,6.88-90.6l-13.76-114.68-33.26,112.39s0,98.63-2.29,100.92-2.29,1.15-1.15,5.73,5.73,3.44,2.29,6.88-4.59-2.29-3.44,3.44l1.15,5.73-34.41.49s-4.59-9.67-2.29-13.11,2.16-2.5-.64-8.13-3.94-6.78-2.8-7.92,1.15-7.25,1.15-7.25l5.73-109.73s1.15-115.83,1.15-119.27c.09-1.77-.24-3.54-.95-5.16v-4.67l4.39-16.55,15.33-39.79Z"/>
      <path class="cls-5" d="M831.58,205.86c0,18.74-15.19,33.92-33.92,33.92s-33.92-15.19-33.92-33.92,15.19-33.92,33.92-33.92,33.92,15.19,33.92,33.92"/>
      <path class="cls-6" d="M780.69,262.21c-7.31,4.35-11.68,12.33-14.19,20.45-4.65,15.04-7.44,30.59-8.33,46.31l-2.65,47.05-32.83,100.19c28.45,24.08,135.4,5.47,135.4,5.47,0,0,3.28-1.09,0-4.38s-6.48-.37-3.2-3.66c3.28-3.28,1.02.38-.07-2.91-1.09-3.28,0-1.1,1.09-2.19s-8.47-10.94-8.47-10.94l8.76-57.51,10.94-116c-13.13-16.42-39.54-26.09-39.54-26.09l-6.82-12.28-34.12,2.73-5.97,13.76Z"/>
      <path class="cls-2" d="M776.04,185.95c1.31.01,2.62.18,3.89.51,2.51.6,5.05,1.03,7.62,1.28,16.16,1.52,29.2,13.87,31.59,29.93,1.97-1.72,6.46-4.88,10.13-1.94.06.05.09.07.22,0,2.44-1.16,6.78-15.42,6.91-27.97.07-6.66-.98-15.17-6.37-17.87l-.28-.14-.08-.31c-.36-1.5-4.38-4.06-11.37-6.05-12.7-3.62-31.27-4.14-41.93,6.23-.81,3.5-3.81,4.46-6.46,5.3-2.94.94-5.47,1.75-5.87,5.35-.33,5.13-.31,10.27.07,15.39.99-3.14,2.95-5.88,5.58-7.85,1.87-1.26,4.09-1.92,6.35-1.88"/>
      <path class="cls-5" d="M712.89,373.4l55.41-35.49-27.91-37.1-27.56,33.9-85.87,5.27c-6.43-6.35-16.79-6.29-23.14.13-6.35,6.43-6.29,16.79.13,23.14,6.03,5.96,15.63,6.33,22.09.84l86.84,9.31Z"/>
      <path class="cls-6" d="M819.74,288.37c3.22,19.46-57.52,56.63-57.52,56.63,0-4.57-36.25,29.92-37.89,26.13-4.65-10.77-7.92-36.27-14.42-40.36-3.72-2.33,22.38-24.27,22.38-24.27,0,0,13.66-13.76,31.59-31.12,10.12-10.17,24.74-14.44,38.74-11.32,0,0,13.9,4.84,17.12,24.3"/>
      <path class="cls-1" d="M757.99,511.86c.02,20.83-3.46,41.51-10.32,61.18-.31.91-.64,1.82-.97,2.73-14.03,38.1-40.13,70.58-74.31,92.48-2.33,1.5-4.69,2.93-7.1,4.33-27.31,15.84-58.23,24.4-89.8,24.87-1.04.01-2.07.03-3.11.03-1.34,0-2.66-.01-3.99-.04-31.61-.63-62.53-9.36-89.8-25.36-2.4-1.41-4.77-2.87-7.1-4.38-78.53-50.91-106.94-152.29-66.29-236.59.44-.91.89-1.82,1.35-2.73,46.15-91.58,157.8-128.41,249.38-82.26,35.53,17.9,64.36,46.74,82.26,82.26.46.91.91,1.82,1.35,2.73,12.18,25.18,18.48,52.79,18.44,80.76"/>
      <path class="cls-4" d="M700.56,573.04v2.73h16.62v-2.73h-16.62ZM667.32,573.04v2.73h16.62v-2.73h-16.62ZM634.07,573.04v2.73h16.62v-2.73h-16.62ZM600.82,573.04v2.73h16.62v-2.73h-16.62ZM567.58,573.04v2.73h16.62v-2.73h-16.62ZM534.33,573.04v2.73h16.62v-2.73h-16.62ZM501.08,573.04v2.73h16.62v-2.73h-16.62ZM467.85,573.04v2.73h16.61v-2.73h-16.61ZM434.6,573.04v2.73h16.62v-2.73h-16.62ZM401.36,573.04v2.73h16.62v-2.73h-16.62ZM747.68,573.04h-13.87v2.73h12.9l.97-2.73Z"/>
      <path class="cls-4" d="M733.81,553.93v2.73h16.62v-2.73h-16.62ZM700.56,553.93v2.73h16.62v-2.73h-16.62ZM667.32,553.93v2.73h16.62v-2.73h-16.62ZM634.07,553.93v2.73h16.62v-2.73h-16.62ZM600.82,553.93v2.73h16.62v-2.73h-16.62ZM567.58,553.93v2.73h16.62v-2.73h-16.62ZM534.33,553.93v2.73h16.62v-2.73h-16.62ZM501.08,553.93v2.73h16.62v-2.73h-16.62ZM467.85,553.93v2.73h16.61v-2.73h-16.61ZM434.6,553.93v2.73h16.62v-2.73h-16.62ZM401.36,553.93v2.73h16.62v-2.73h-16.62Z"/>
      <path class="cls-4" d="M733.81,514.35v2.73h16.62v-2.73h-16.62ZM700.56,514.35v2.73h16.62v-2.73h-16.62ZM667.32,514.35v2.73h16.62v-2.73h-16.62ZM634.07,514.35v2.73h16.62v-2.73h-16.62ZM600.82,514.35v2.73h16.62v-2.73h-16.62ZM567.58,514.35v2.73h16.62v-2.73h-16.62ZM534.33,514.35v2.73h16.62v-2.73h-16.62ZM501.08,514.35v2.73h16.62v-2.73h-16.62ZM467.85,514.35v2.73h16.61v-2.73h-16.61ZM434.6,514.35v2.73h16.62v-2.73h-16.62ZM401.36,514.35v2.73h16.62v-2.73h-16.62Z"/>
      <path class="cls-4" d="M733.81,487.06v2.73h16.62v-2.73h-16.62ZM700.56,487.06v2.73h16.62v-2.73h-16.62ZM667.32,487.06v2.73h16.62v-2.73h-16.62ZM634.07,487.06v2.73h16.62v-2.73h-16.62ZM600.82,487.06v2.73h16.62v-2.73h-16.62ZM567.58,487.06v2.73h16.62v-2.73h-16.62ZM534.33,487.06v2.73h16.62v-2.73h-16.62ZM501.08,487.06v2.73h16.62v-2.73h-16.62ZM467.85,487.06v2.73h16.61v-2.73h-16.61ZM434.6,487.06v2.73h16.62v-2.73h-16.62ZM401.36,487.06v2.73h16.62v-2.73h-16.62Z"/>
      <path class="cls-4" d="M738.2,428.37h-4.39v2.73h5.75c-.44-.91-.89-1.82-1.35-2.73M700.56,428.37v2.73h16.62v-2.73h-16.62ZM667.32,428.37v2.73h16.62v-2.73h-16.62ZM634.07,428.37v2.73h16.62v-2.73h-16.62ZM600.82,428.37v2.73h16.62v-2.73h-16.62ZM567.58,428.37v2.73h16.62v-2.73h-16.62ZM534.33,428.37v2.73h16.62v-2.73h-16.62ZM501.08,428.37v2.73h16.62v-2.73h-16.62ZM467.85,428.37v2.73h16.61v-2.73h-16.61ZM434.6,428.37v2.73h16.62v-2.73h-16.62ZM406.56,428.37c-.46.91-.91,1.82-1.35,2.73h12.77v-2.73h-11.42Z"/>
      <path class="cls-6" d="M672.39,437.57v230.68c-2.33,1.5-4.69,2.93-7.1,4.33v-235h7.1Z"/>
      <path class="cls-6" d="M575.49,514v183.44c-1.04.01-2.07.03-3.11.03-1.34,0-2.66-.01-3.99-.04v-183.43h7.1Z"/>
      <path class="cls-6" d="M478.59,437.57v234.5c-2.4-1.41-4.77-2.87-7.1-4.38v-230.12h7.1Z"/>
      <path class="cls-3" d="M693.85,429.97c0,14.32-11.61,25.93-25.93,25.93s-25.93-11.61-25.93-25.93,11.61-25.93,25.93-25.93,25.93,11.61,25.93,25.93"/>
      <path class="cls-9" d="M681.23,419.16c-.81-.77-2.08-.77-2.89,0-5.5,4.39-10.44,9.44-14.72,15.03l-3.15-6.09c-1.21-2.34-4.74-.27-3.53,2.07l4.6,8.9c.6.98,1.87,1.28,2.85.69.28-.17.52-.41.69-.69,4.55-6.41,9.99-12.14,16.16-17.02.79-.8.79-2.09,0-2.89"/>
      <path class="cls-3" d="M598.31,506.4c0,14.32-11.61,25.93-25.93,25.93s-25.93-11.61-25.93-25.93,11.61-25.93,25.93-25.93,25.93,11.61,25.93,25.93"/>
      <path class="cls-9" d="M585.69,495.59c-.81-.77-2.08-.77-2.89,0-5.5,4.39-10.44,9.44-14.72,15.03l-3.15-6.09c-1.21-2.34-4.74-.27-3.53,2.07l4.6,8.9c.6.98,1.87,1.28,2.85.69.28-.17.52-.41.69-.69,4.55-6.41,9.99-12.14,16.16-17.02.79-.8.79-2.09,0-2.89"/>
      <path class="cls-3" d="M501.41,435.43c0,14.32-11.61,25.93-25.93,25.93s-25.93-11.61-25.93-25.93,11.61-25.93,25.93-25.93,25.93,11.61,25.93,25.93"/>
      <path class="cls-9" d="M488.79,424.62c-.81-.77-2.08-.77-2.89,0-5.5,4.39-10.44,9.44-14.72,15.03l-3.15-6.09c-1.21-2.34-4.74-.27-3.53,2.07l4.6,8.9c.6.98,1.87,1.28,2.85.69.28-.17.52-.41.69-.69,4.55-6.41,9.99-12.14,16.16-17.02.79-.8.79-2.09,0-2.89"/>
      <path class="cls-5" d="M847.36,416.99l17.07-63.55-45.62-8.64,2.45,43.62-59.94,61.72c-9.03-.37-16.65,6.65-17.02,15.68-.37,9.03,6.65,16.65,15.68,17.02,8.48.35,15.81-5.84,16.9-14.26l70.47-51.6Z"/>
      <path class="cls-6" d="M869.1,282.18c15.49,12.22-4.39,80.6-4.39,80.6-3.08-3.38-6.65,46.53-10.41,44.83-10.69-4.83-30.28-21.49-37.84-20.13-4.32.78.21-33.01.21-33.01,0,0,.83-19.37,2.4-44.28.63-14.33,8.56-27.33,21.01-34.45,0,0,13.54-5.79,29.02,6.44"/>
      <path class="cls-10" d="M334.27,424.86l18.77,83.75-120.26-7.48,32.7-82.25,68.79,5.98Z"/>
      <path class="cls-10" d="M314.24,811.41h13.51s6.43-52.11,6.43-52.11h-19.94v52.11Z"/>
      <path class="cls-2" d="M309.67,804.75l21.36-1.27v9.15l20.3,14.02c2.6,1.8,3.25,5.36,1.45,7.95-1.07,1.54-2.82,2.46-4.7,2.47h-25.42l-4.38-9.05-1.71,9.05h-9.58l2.69-32.31Z"/>
      <path class="cls-10" d="M186.56,804.69l13.2,2.86,17.33-49.56-19.49-4.23-11.05,50.92Z"/>
      <path class="cls-2" d="M183.5,797.21l21.14,3.28-1.94,8.94,16.87,18.01c2.16,2.3,2.04,5.92-.26,8.08-1.37,1.28-3.28,1.81-5.12,1.41l-24.85-5.39-2.36-9.77-3.59,8.48-9.37-2.03,9.48-31.01Z"/>
      <path class="cls-2" d="M356.11,578.65c-9.48,52.11-11.85,74.6-11.85,74.6,0,0,7.11,8.29,2.37,13.03s0,14.21,0,14.21l-10.66,114.87-8.58-1.39-20.67-3.32-7.46-1.21,4.74-107.76s-4.74-9.48-2.37-11.85-2.37-16.58-2.37-16.58l-5.92-112.5-36.72,123.16s3.56,4.74,0,8.29c-3.55,3.55-10.65,21.32-10.65,21.32l-21.84,76.4-1.85,6.49-11.39-2.13-12.4-2.33-2.28-.42-4.05-.77-2.61-.49-.89-.16-4.29-.81,1.3-5.76.68-3.03,18.47-82.04.42-1.89.45-2s-2.37-5.92,1.18-9.48c2.11-2.2,2.99-5.3,2.37-8.29-.12-.12-.22-.26-.32-.4-.42-.58-.71-1.23-.85-1.93-.32-1.48-.04-3.56,2.36-5.96.67-.72,1.24-1.53,1.68-2.41,3.6-6.82,5.42-21.27,5.42-21.27,0,0,3.2-114.42,13.69-131.9.56-.91,11.69-18.45,12.27-18.81,11.84-7.1,104.07,2.71,104.07,2.71,0,0,5.59,15.01,5.84,16.57,1.36,8.78,10.73,41.05,2.69,85.25"/>
      <path class="cls-3" d="M328.08,303.04s2-10.36-17.18-29.53c-10.15-3.38-27.74-1.41-33.84,0-28.2,37.22-23.15,30.66-30.49,51.45-1.9,5.39-2.86,10.58-2.01,14.81,3.38,16.92,8.88,103.78,7.75,108.29s-9.02,10.15-1.13,10.15,109.72-1.78,107.47-5.17-30.57-150-30.57-150"/>
      <path class="cls-10" d="M449.02,440.68c-5.84,2.26-12.41-.64-14.67-6.48-.24-.62-.43-1.27-.56-1.92l-39.91-5.67,13.88-15.69,35.77,7.79c6.25-.79,11.96,3.63,12.75,9.88.66,5.22-2.34,10.22-7.26,12.1"/>
      <path class="cls-3" d="M280.17,296.38c3.22-2.15,6.87-3.16,9.81-6.03,10.74,7.74,11.53-4.86,21.27,14.09,9.74,18.95,44.46,64.63,59.1,78.36,14.64,13.74,41.44,20.68,49.21,25.52,4.54,2.73,9.3,5.07,14.23,6.99-3.12,6.07-4.85,12.72-8.74,18.52-22.01-2.7-50.87-11.51-67.1-15.81-16.23-4.31-10.06-1.1-16.73-6.15-6.67-5.05-1.16-2.72-8.93-4.77s-13.69-12.34-16.03-20.29c-5.58-5.7-10.36-11.86-15.88-17.5-6.38-24.39-13.47-48.67-20.22-72.94"/>
      <path class="cls-10" d="M338.04,226.41c0,18.04-14.62,32.66-32.66,32.66s-32.66-14.62-32.66-32.66,14.62-32.66,32.66-32.66,32.66,14.62,32.66,32.66"/>
      <path class="cls-2" d="M327.2,286.11c-1.55-2.21-13.12-24.13-16.56-32.42-.35,1.8-.58,3.61-.67,5.44l-.03.68-.68.09c-1.02.13-25.04,3.04-37.54-11.13-7.41-8.4-9.09-20.99-5-37.44-.74-.15-1.46-.42-2.1-.81-2.19-1.51-3.6-3.92-3.85-6.56l-.69.19c-22.24-10.82-3.08-42.49,17.24-26.74,1.78-.4,3.64-.29,5.36.31,3.39,1.38,5.75,4.51,6.14,8.14,10.5-5.52,24.39-4.62,31.57-.48,3.01,1.73,4.74,3.92,5.04,6.36,8.49.47,17.61,8.74,17.61,20.45v.82h-.81c-6.96.15-13.27,4.12-16.4,10.33-4.25,7.68-3.97,17.07.74,24.48,5.08,7.8,6.8,17.31,4.76,26.39l-3.06,13.43-1.05-1.51Z"/>
      <path class="cls-7" d="M854.51,837.33c0,.89-1.31,1.62-2.93,1.62H156.97c-1.63,0-2.95-.73-2.95-1.62s1.32-1.62,2.95-1.62h694.59c1.62,0,2.94.72,2.95,1.62h0"/>
      <path class="cls-4" d="M489.13,705.83c0,7.98-6.47,14.45-14.45,14.45s-14.45-6.47-14.45-14.45,6.47-14.45,14.45-14.45,14.45,6.47,14.45,14.45"/>
      <path class="cls-4" d="M586.03,720.84c0,7.98-6.47,14.45-14.45,14.45s-14.45-6.47-14.45-14.45,6.47-14.45,14.45-14.45,14.45,6.47,14.45,14.45"/>
      <path class="cls-4" d="M682.93,703.1c0,7.98-6.47,14.45-14.45,14.45s-14.45-6.47-14.45-14.45,6.47-14.45,14.45-14.45,14.45,6.47,14.45,14.45"/>
    </g>
  </g>
</svg>