<?xml version="1.0" encoding="UTF-8"?>
<svg id="Layer_2" data-name="Layer 2" xmlns="http://www.w3.org/2000/svg" viewBox="0 0 1000 1000">
  <defs>
    <style>
      .cls-1 {
        fill: #2f2e41;
      }

      .cls-2 {
        fill: #00b8d2;
      }

      .cls-3 {
        fill: #feb8b8;
      }

      .cls-4 {
        fill: #e6e6e6;
      }

      .cls-5 {
        fill: #ffb6b6;
      }

      .cls-6 {
        fill: #3f3d56;
      }

      .cls-7 {
        fill: #ccc;
      }

      .cls-8 {
        fill: #f6fbff;
      }

      .cls-9 {
        fill: #fff;
      }

      .cls-10 {
        fill: #fbbebe;
      }
    </style>
  </defs>
  <g id="Layer_1-2" data-name="Layer 1">
    <circle class="cls-8" cx="500" cy="500" r="500"/>
    <g>
      <path class="cls-6" d="M632.57,126.76l286.54,230.35c3.16,2.55,3.66,7.17,1.12,10.34l-43.42,54.01-2.29-1.84,43.42-54.01c1.52-1.9,1.22-4.68-.67-6.21l-286.54-230.35c-1.9-1.52-4.68-1.22-6.21.67l-43.72,54.38-2.29-1.84,43.72-54.38c2.55-3.16,7.17-3.66,10.34-1.12"/>
      <path class="cls-6" d="M202.01,364.45l-1.84,2.29-97.82-78.64,1.84-2.29,97.82,78.64Z"/>
      <path class="cls-2" d="M123.18,302.68c-8.76,10.89-24.69,12.62-35.58,3.87-10.89-8.76-12.62-24.69-3.87-35.58,8.76-10.89,24.69-12.62,35.58-3.87s12.62,24.69,3.87,35.58"/>
      <path class="cls-6" d="M844.22,300.11c8.76-10.89,24.69-12.62,35.58-3.87,10.89,8.76,12.62,24.69,3.87,35.58s-24.69,12.62-35.58,3.87-12.62-24.69-3.87-35.58"/>
      <path class="cls-7" d="M740.81,216.98c8.76-10.89,24.69-12.62,35.58-3.87s12.62,24.69,3.87,35.58-24.69,12.62-35.58,3.87c-10.89-8.76-12.62-24.69-3.87-35.58"/>
      <path class="cls-2" d="M744.32,315.23c8.76-10.89,24.69-12.62,35.58-3.87s12.62,24.69,3.87,35.58c-8.76,10.89-24.69,12.62-35.58,3.87-10.89-8.76-12.62-24.69-3.87-35.58"/>
      <path class="cls-2" d="M187.44,350.89c8.76-10.89,24.69-12.62,35.58-3.87,10.89,8.76,12.62,24.69,3.87,35.58-8.76,10.89-24.69,12.62-35.58,3.87-10.89-8.76-12.62-24.69-3.87-35.58"/>
      <path class="cls-2" d="M560.09,167.13c8.76-10.89,24.69-12.62,35.58-3.87s12.62,24.69,3.87,35.58c-8.76,10.89-24.69,12.62-35.58,3.87-10.89-8.76-12.62-24.69-3.87-35.58"/>
      <path class="cls-6" d="M675.76,407.79l20.27-25.21,36.58,29.41-20.27,25.21-36.58-29.41Z"/>
      <path class="cls-2" d="M892.38,434.13l-20.27,25.21-36.58-29.41,20.27-25.21,36.58,29.41Z"/>
      <path class="cls-7" d="M648.27,127.24l-20.27,25.21-36.58-29.41,20.27-25.21,36.58,29.41Z"/>
      <path class="cls-6" d="M163.56,337.32c-.63-.51-.73-1.44-.22-2.07l45.5-56.6c2.55-3.16,7.17-3.66,10.34-1.12l55.81,44.87c.63.51.73,1.44.22,2.07s-1.44.73-2.07.22l-55.81-44.87c-1.9-1.52-4.68-1.22-6.21.67l-45.5,56.6c-.51.63-1.44.73-2.07.22"/>
      <path class="cls-4" d="M296.76,341.07c-8.76,10.89-24.69,12.62-35.58,3.87-10.89-8.76-12.62-24.69-3.87-35.58,8.76-10.89,24.69-12.62,35.58-3.87s12.62,24.69,3.87,35.58"/>
      <path class="cls-6" d="M749.31,348.7l2.29,1.84-45.5,56.6c-2.55,3.16-7.17,3.66-10.34,1.12l-55.81-44.87,1.84-2.29,55.81,44.87c1.9,1.52,4.68,1.22,6.21-.67l45.5-56.6Z"/>
      <path class="cls-4" d="M618.17,344.72c8.76-10.89,24.69-12.62,35.58-3.87s12.62,24.69,3.87,35.58c-8.76,10.89-24.69,12.62-35.58,3.87-10.89-8.76-12.62-24.69-3.87-35.58"/>
      <g>
        <path class="cls-5" d="M314.34,765.88l-6.04,29.88,112.39,37.54,8.92-44.11-115.27-23.31Z"/>
        <path class="cls-1" d="M325.64,760.23l-11.9,58.85h0c-4.19,20.72-24.38,34.11-45.09,29.92l-1.22-.25,19.49-96.36,38.73,7.83Z"/>
        <path class="cls-3" d="M518.02,277.92c0,42.15-34.17,76.31-76.31,76.31s-76.31-34.17-76.31-76.31,34.17-76.31,76.31-76.31,76.31,34.17,76.31,76.31"/>
        <path class="cls-1" d="M512.98,212.09c-11.41-18.53-29.27-32.18-50.14-38.33l-9.37,6.84v-8.88c-5.01-.77-10.09-1.06-15.15-.88l-8.08,7.31v-6.71c-24.19,3.01-46.03,15.99-60.22,35.82-17.55,25.3-20.52,60.51-3.25,86.02,4.74-14.56,10.49-28.23,15.23-42.79,3.72.51,7.5.53,11.23.05l5.77-13.45,1.61,12.88c17.87-1.56,44.38-4.98,61.32-8.11l-1.65-9.89,9.86,8.21c5.19-1.19,8.27-2.28,8.02-3.11,12.6,20.31,28.02,33.29,40.62,53.6,4.79-28.64,10.3-52.46-5.79-78.6"/>
        <path class="cls-1" d="M663.03,722.34c0,30.36-87.97,54.96-196.49,54.96s-196.49-24.61-196.49-54.96,87.97-54.96,196.49-54.96,196.49,24.61,196.49,54.96"/>
        <path class="cls-2" d="M605.83,474.17c-2.62-15.79-5.33-31.88-12.67-46.1-4.82-9.32-12.48-18.19-22.8-20.03-2.03-.18-4.03-.64-5.94-1.37-3.02-1.46-43.66-24.65-50.11-28.69-5.55-3.47-14.3-9.89-18.71-9.89-4.44-.1-21.46,3.86-87.92-1.33-11.18,4.49-22,9.81-32.38,15.92-.21-.14-68.97,36.78-71.56,36.68-4.89-.21-9.44,2.93-12.24,6.87-2.8,3.95-4.12,8.83-5.5,13.55,15.02,33.44,28.76,66.93,43.78,100.38.7,1.26,1.08,2.68,1.09,4.12-.3,1.5-.94,2.91-1.87,4.12-7.36,11.83-7.13,26.71-6.33,40.62.8,13.91,1.8,28.59-4.41,41.06-1.69,3.42-3.89,6.55-5.5,9.97-3.77,7.75-5.13,32.54-2.93,40.87l275.51,7.89c-5.92-16.28,20.48-214.63,20.48-214.63"/>
        <path class="cls-10" d="M262.19,541.63c-.55,3.98-.61,8.01-.16,12l3.95,56.71c.37,5.34.74,10.68,1.24,16.01.95,10.35,2.36,20.61,4.12,30.86.08,3.03,2.6,5.42,5.63,5.34,17.38,3.68,35.34,3.53,53.08,2.53,27.07-1.51,96.33-4.37,100.56-9.87,4.23-5.5,1.77-14.39-3.75-18.83-5.52-4.44-96.91-15.28-96.91-15.28.89-7.08,3.59-13.74,6.14-20.46,4.59-11.92,8.88-24.22,8.96-36.99s-4.73-26.19-15.18-33.5c-8.6-6.01-19.68-7.12-30.16-6.87-7.63.22-20.8-1.61-27.77,1.37-5.51,2.43-8.71,11.58-9.74,16.98"/>
        <path class="cls-1" d="M606.32,669.82c4.58-1.74,9.62-1.11,14.53-.45,15.79,2.16,31.81,4.37,46.44,10.68,6.87,2.94,13.41,6.87,18.06,12.65,4.12,5.21,6.53,11.58,8.81,17.86l5.28,14.46c2.24,5.43,3.79,11.12,4.6,16.94,1.65,17.3-10.18,33.61-25.06,42.6-14.88,8.99-32.4,12.19-49.47,15.54s-34.2,7.06-51.2,10.99c-7.93,2.06-15.97,3.64-24.09,4.74-18.19,2.06-37.21-.98-54.5,5.04-6.87,2.41-13.62,5.98-20.74,7.64-4.74,1-9.53,1.73-14.35,2.18l-32.72,3.74c-6.65.89-13.35,1.4-20.06,1.54-14.29,0-28.35-3.38-42.22-6.77-1.47-.26-2.88-.83-4.12-1.66-2.2-1.73-2.68-4.8-3-7.57-1.4-12.28-2.63-24.58-3.68-36.89-.33-4-.58-8.33,1.61-11.69,2.75-4.12,8.11-5.41,13-6.21,20.74-3.39,41.76-4.85,62.77-4.35,7.98-7.98,21.15-8.03,31.6-12.37,3.85-1.77,7.57-3.79,11.14-6.06,18.71-10.91,39.61-17.52,61.19-19.33,4.23-.13,8.42-.73,12.52-1.79,8.09-2.51,15.47-9.36,23.78-7.68,1.03-2.85,1.74-6.65,4.12-8.6,1.18-1,2.64-1.68,3.72-2.75,2.3-2.32,2.5-5.98,2.16-9.22s-1.11-6.57-.28-9.73c.35-1.2.86-2.34,1.53-3.39,4.11-7.11,10.33-10.76,18.62-10.08"/>
        <path class="cls-2" d="M285.21,440.79c-1.34,1.4-2.37,3.06-3.05,4.88-11.11,25.03-17.67,51.84-19.38,79.17.03,1.33-.28,2.65-.89,3.83-.61.79-1.28,1.52-2.02,2.18-2.7,3.2-2.3,7.99.91,10.69,0,0,0,0,0,0,.13.1.25.21.39.3,2.27-4.27,7.69-5.66,12.52-6.03,23.1-1.83,45.66,8.92,68.83,8.11-1.63-5.65-3.99-11.08-5.32-16.79-5.9-25.38,8.81-53.01-.21-77.46-1.8-4.89-4.81-9.7-9.55-11.84-1.96-.79-4.02-1.34-6.11-1.62-5.86-1.06-17.51-5.58-23.17-3.77-2.09.67-2.91,2.64-4.64,3.83-2.63,1.68-6.12,2.3-8.3,4.51"/>
        <path class="cls-10" d="M606,524.65c-6.96-2.98-20.14-1.15-27.77-1.37-10.48-.25-21.56.87-30.16,6.87-10.46,7.31-15.27,20.74-15.18,33.5s4.37,25.07,8.96,36.99c2.56,6.72,5.25,13.38,6.14,20.46,0,0-91.39,10.84-96.91,15.28s-7.98,13.34-3.75,18.83,136.26,11.01,153.64,7.34c3.03.08,5.55-2.31,5.63-5.34,1.76-10.25,3.17-20.51,4.12-30.86.5-5.33.87-10.66,1.24-16.01l3.95-56.71c.44-3.99.39-8.02-.16-12-1.03-5.4-4.23-14.55-9.74-16.98"/>
        <path class="cls-2" d="M584.41,436.28c-1.73-1.19-2.55-3.15-4.64-3.83-5.66-1.81-17.31,2.71-23.17,3.77-2.1.28-4.15.83-6.11,1.62-4.74,2.14-7.75,6.95-9.55,11.84-9.01,24.45,5.69,52.08-.21,77.46-1.33,5.71-3.68,11.14-5.32,16.79,23.17.81,45.73-9.94,68.83-8.11,4.82.37,10.25,1.77,12.52,6.03.13-.1.26-.2.38-.3,3.2-2.7,3.61-7.49.91-10.69,0,0,0,0,0,0-.74-.67-1.41-1.4-2.02-2.18-.61-1.18-.92-2.5-.89-3.83-1.71-27.33-8.27-54.14-19.38-79.17-.67-1.82-1.71-3.48-3.05-4.88-2.18-2.21-5.67-2.83-8.3-4.51"/>
        <path class="cls-5" d="M623.05,808.54l-4.02,30.22-118.49-1.11,5.93-44.61,116.58,15.49Z"/>
        <path class="cls-1" d="M653.37,804.72l-12.95,97.45-1.23-.16c-20.95-2.78-35.68-22.02-32.89-42.97,0,0,0,0,0,0l7.91-59.52,39.16,5.21Z"/>
        <path class="cls-1" d="M344.3,685.12c0,1.37-2.16,0-2.35-1.47-1.51-11.12-10.33-20.28-20.61-24.73s-21.99-4.69-33.12-3.63c-16.83,1.59-35.73,8.04-41.88,23.77-1.46,3.68-15.1,36.43-13.77,43.79,3.59,19.65,17.03,36.46,33.31,48.09,16.28,11.64,35.31,18.59,54.29,24.86,50.18,16.55,101.66,28.84,153.9,36.76,8.46,1.28,17.01,2.46,25.12,5.18,7.25,2.43,14.04,6.07,21.13,8.93,16.49,6.62,34.23,8.99,51.8,11.31,3,.39,6.43.66,8.64-1.37,2.86-2.65,1.91-7.27,1.1-11.08-2.98-14.47-.48-29.54,7.02-42.27,2.94-4.95,6.77-10.02,6.21-15.74-.66-6.68-7.31-11.4-13.93-12.48-6.62-1.07-13.36.51-20.01,1.37-2.28.52-4.67.29-6.8-.67-.99-.67-1.89-1.46-2.67-2.36-9.4-9.07-23.57-11.05-35.09-4.91-2.46,1.37-6.18-1.69-8.74-2.84l-28.9-13.08c-33.2-15.02-66.56-30.11-101.68-39.62-2.8-.55-5.47-1.66-7.83-3.26-1.74-1.37-3-3.24-4.6-4.77-3.5-3.31-8.39-4.63-12.58-6.98s-8.91-8.1-7.95-12.81"/>
        <path class="cls-10" d="M439.7,644.66c0,11.38-9.22,20.6-20.6,20.6s-20.6-9.22-20.6-20.6,9.22-20.6,20.6-20.6,20.6,9.22,20.6,20.6"/>
        <path class="cls-10" d="M485.31,644.66c0,11.38-9.22,20.6-20.6,20.6s-20.6-9.22-20.6-20.6,9.22-20.6,20.6-20.6,20.6,9.22,20.6,20.6"/>
        <path class="cls-6" d="M591.85,691.07h-282.97c-6.88,0-12.45-5.58-12.46-12.46v-171.67c0-6.88,5.58-12.45,12.46-12.46h282.97c6.88,0,12.45,5.58,12.46,12.46v171.67c0,6.88-5.58,12.45-12.46,12.46"/>
        <path class="cls-9" d="M457.92,592.78c0,4.55-3.68,8.25-8.23,8.25s-8.25-3.68-8.25-8.23v-.02c0-4.55,3.69-8.24,8.24-8.24s8.24,3.69,8.24,8.24"/>
        <path class="cls-2" d="M323.62,463.81c-8.76,10.89-24.69,12.62-35.58,3.87s-12.62-24.69-3.87-35.58c8.76-10.89,24.69-12.62,35.58-3.87,10.89,8.76,12.62,24.69,3.87,35.58"/>
      </g>
    </g>
  </g>
</svg>