<?xml version="1.0" encoding="UTF-8"?>
<svg id="Layer_2" data-name="Layer 2" xmlns="http://www.w3.org/2000/svg" viewBox="0 0 1000 1000">
  <defs>
    <style>
      .cls-1 {
        fill: #2f2e41;
      }

      .cls-2 {
        fill: #00b8d2;
      }

      .cls-3 {
        fill: #3f3d56;
      }

      .cls-4 {
        fill: #e5e5e5;
      }

      .cls-5 {
        fill: #ccc;
      }

      .cls-6 {
        fill: #f6fbff;
      }

      .cls-7 {
        fill: #fff;
      }

      .cls-8 {
        fill: #ff6884;
      }

      .cls-9 {
        fill: #a0616a;
      }
    </style>
  </defs>
  <g id="Layer_1-2" data-name="Layer 1">
    <circle class="cls-6" cx="500" cy="500" r="500"/>
    <g>
      <path class="cls-1" d="M424.45,196.54c6.96-1.16,14.54,7.35,17.71,10.9,8.45,9.48,10.22,20.52,10.9,25.2,10.77,73.91,16.15,110.87-6.13,128.06-21.18,16.34-59.89,11.95-67.43-2.72-2.94-5.72-.48-11.7,3.41-23.16,7.18-21.18,11.42-43.25,17.71-64.71,14.36-49,13.16-71.78,23.84-73.56"/>
      <path class="cls-1" d="M234.41,472.4l-33.89,63.97c-8.65,16.33-49.59,267.88-31.39,271.05l78.86,2.62,32.72,1.72,33.63.48,83.37,2.77-46.83-327.62-116.48-14.98Z"/>
      <path class="cls-2" d="M317.85,284.74l67.43,2.72,5.45,22.48,16.24,13.25c5.97,4.87,8.9,12.55,7.69,20.16l-7.58,47.65s14.3,34.06-21.8,55.85l-36.1,58.58-125.33-12.94s-11.58-1.36-3.41-9.54c8.17-8.17,18.39-48.36,18.39-48.36,0,0-1.36-17.71,3.41-22.48,4.77-4.77,1.45-17.03,1.45-17.03l19.39-71.69c3.78-13.97,16.45-23.67,30.92-23.67h21.51l2.33-14.99Z"/>
      <path class="cls-7" d="M836.6,743.13l-588.92-157.39c-12.58-3.36-21.35-13.49-22.88-26.42-1.53-12.93,4.63-24.82,16.08-31.03l239.33-129.8c6.08-3.29,13.09-4.47,19.91-3.35l395.59,65.21c8.44,1.39,15.76,6.05,20.61,13.1,4.84,7.06,6.55,15.56,4.82,23.94l-46,221.98c-1.76,8.47-6.78,15.64-14.14,20.18-4.99,3.08-10.58,4.66-16.27,4.66-2.74,0-5.47-.36-8.12-1.07"/>
      <path class="cls-5" d="M836.6,743.13l-588.92-157.39c-12.58-3.36-21.35-13.49-22.88-26.42-1.53-12.93,4.63-24.82,16.08-31.03l239.33-129.8c6.08-3.29,13.09-4.47,19.91-3.35l395.59,65.21c8.44,1.39,15.76,6.05,20.61,13.1,4.84,7.06,6.55,15.56,4.82,23.94l-46,221.98c-1.76,8.47-6.78,15.64-14.14,20.18-4.99,3.08-10.58,4.66-16.27,4.66-2.74,0-5.47-.36-8.12-1.07M895.17,463.55l-395.59-65.21c-6.11-1-12.38.06-17.83,3l-239.33,129.8c-10.25,5.56-15.77,16.21-14.4,27.79,1.37,11.58,9.22,20.65,20.49,23.66l588.92,157.39c7.49,2,15.24.86,21.84-3.21,6.6-4.07,11.1-10.49,12.67-18.08l46-221.98c1.56-7.51.02-15.12-4.31-21.44-4.34-6.32-10.89-10.49-18.46-11.73l.27-1.6-.27,1.6Z"/>
      <path class="cls-4" d="M809.62,524.66l-52.52,132.53c-5.09,12.85-19.39,19.42-32.45,14.93l-386.03-132.82c-21.32-7.33-23.7-36.53-3.85-47.22l124.23-66.93c5.4-2.91,11.67-3.81,17.67-2.52l314.32,67.22c15.64,3.35,24.53,19.95,18.63,34.82"/>
      <path class="cls-8" d="M730.29,535.75c0,6.02-9.76,10.9-21.8,10.9s-21.8-4.88-21.8-10.9,9.76-10.9,21.8-10.9,21.8,4.88,21.8,10.9"/>
      <path class="cls-3" d="M709.85,569.12c0,6.02-9.76,10.9-21.8,10.9s-21.8-4.88-21.8-10.9,9.76-10.9,21.8-10.9,21.8,4.88,21.8,10.9"/>
      <path class="cls-2" d="M630.16,524.17c0,16.36-26.53,29.63-59.26,29.63s-59.26-13.27-59.26-29.63,26.53-29.63,59.26-29.63,59.26,13.27,59.26,29.63"/>
      <path class="cls-3" d="M468.05,522.8c1.13,0,2.04-.92,2.04-2.05,0-.86-.54-1.63-1.35-1.92l-43.24-15.33c-1.07-.35-2.23.24-2.58,1.31-.34,1.03.2,2.15,1.21,2.54l43.24,15.33c.23.08.45.12.68.12"/>
      <path class="cls-3" d="M477.58,515.31c1.13,0,2.04-.92,2.04-2.05,0-.86-.54-1.63-1.35-1.92l-43.24-15.33c-1.07-.35-2.23.24-2.58,1.31-.34,1.03.2,2.15,1.21,2.54l43.24,15.33c.23.08.45.12.68.12"/>
      <path class="cls-3" d="M487.12,507.82c1.13,0,2.04-.92,2.04-2.05,0-.86-.55-1.63-1.36-1.92l-43.24-15.32c-1.07-.35-2.23.24-2.58,1.31-.34,1.03.2,2.15,1.21,2.54l43.24,15.33c.23.08.45.12.68.12"/>
      <path class="cls-3" d="M496.66,500.33c1.13,0,2.04-.92,2.04-2.05,0-.86-.54-1.63-1.35-1.92l-43.24-15.33c-1.07-.35-2.23.24-2.58,1.31-.34,1.03.2,2.15,1.21,2.54l43.24,15.33c.23.08.45.12.68.12"/>
      <path class="cls-3" d="M506.19,492.83c1.13,0,2.04-.92,2.04-2.05,0-.86-.54-1.63-1.35-1.92l-43.24-15.33c-1.07-.35-2.23.24-2.58,1.31-.34,1.03.2,2.15,1.21,2.54l43.24,15.33c.23.08.45.12.68.12"/>
      <path class="cls-3" d="M515.73,485.34c1.13,0,2.04-.92,2.04-2.05,0-.86-.54-1.63-1.35-1.92l-43.24-15.33c-1.07-.35-2.23.24-2.58,1.31-.34,1.03.2,2.15,1.21,2.54l43.24,15.33c.23.08.45.12.68.12"/>
      <path class="cls-3" d="M525.26,477.85c1.13,0,2.04-.92,2.04-2.05,0-.86-.55-1.63-1.36-1.92l-43.24-15.32c-1.07-.35-2.23.24-2.58,1.31-.34,1.03.2,2.15,1.21,2.54l43.24,15.33c.23.08.45.12.68.12"/>
      <path class="cls-9" d="M435.35,251.03c0,30.85-25.01,55.85-55.85,55.85s-55.85-25.01-55.85-55.85,25.01-55.85,55.85-55.85,55.85,25.01,55.85,55.85"/>
      <path class="cls-1" d="M391.08,167.93c-15.73-2.56-24.17-3.94-32.7-2.04-17.08,3.8-26.98,19.07-34.06,29.97-16.92,26.08-9.27,37.03-25.88,73.56-11.92,26.2-17.93,25.12-19.07,38.82-2.4,28.77,22.07,57.54,48.36,68.8,1.76.75,29.08,12.19,36.78,2.72,5.64-6.94-4.33-18.87-16.35-51.09-21.14-56.64-11.15-75.57-8.17-80.38,1.88-3.04,7.24-10.59,10.22-9.54,2.69.95.36,7.86,2.73,13.62,6.33,15.43,44.81,18.86,74.93,6.81,8.88-3.55,14.33-5.73,18.39-11.58,13.78-19.84-2.67-61.42-28.61-73.56-5.9-2.76-12.79-3.88-26.56-6.13"/>
      <path class="cls-9" d="M351.14,500.71c13.58,6.89,21.04,19.48,16.65,28.13-4.39,8.64-18.95,10.06-32.54,3.17-5.47-2.68-10.21-6.63-13.84-11.52l-57.19-29.92,14.61-26.54,54.83,32.31c6.09.04,12.08,1.54,17.47,4.36"/>
      <path class="cls-9" d="M618.61,462.21c14.31,5.22,23.22,16.83,19.89,25.94-3.32,9.11-17.62,12.25-31.93,7.03-5.75-2.01-10.93-5.36-15.11-9.78l-60.35-22.88,11.34-28.09,58.29,25.54c6.05-.69,12.18.08,17.87,2.25"/>
      <path class="cls-2" d="M286.18,313.69s-11.58-23.84-38.14-5.45c-26.57,18.39-89.91,94.68-89.91,94.68,0,0-32.7,28.61-14.3,38.83s150.53,69.48,150.53,69.48l33.38-23.16-118.52-60.62,68.08-51.09,8.89-62.67Z"/>
      <path class="cls-2" d="M401.98,328s8.1-11.58,22.44,0,55.61,78.25,55.61,78.25l101.77,41.63-14.99,30.65-121.92-43.59-53.13-72.2,10.22-34.74Z"/>
      <path class="cls-1" d="M395.51,307.22c-15.45,7.89-8.34,20-8.86,22.48-5.02,24.15,13.33,49.16,20.43,47.68,4.17-.87,6.36-11.25,5.45-19.07-1.18-10.14,8.58-26.2,7.49-33.38-2.67-17.6,13.42-17.93,10.22-24.52-1.87-3.87-25.53,2.11-34.74,6.81"/>
      <path class="cls-7" d="M574.56,555.36c.06,0,.13,0,.19-.01.89-.11,1.53-.91,1.42-1.8,0,0,0,0,0,0l-3.66-30.93c-.11-.89-.91-1.53-1.81-1.42,0,0,0,0,0,0l-58.18,7c-.89.11-1.53.92-1.42,1.81.1.89.91,1.52,1.8,1.42,0,0,0,0,0,0l56.57-6.8,3.47,29.32c.1.82.79,1.43,1.61,1.43"/>
      <path class="cls-2" d="M305.28,554.91c0,16.75-13.58,30.33-30.33,30.33s-30.33-13.58-30.33-30.33,13.58-30.33,30.33-30.33,30.33,13.58,30.33,30.33"/>
      <path class="cls-7" d="M261.16,550.17l9.75,17.15c.58,1.02,2.25,1.09,2.81,0,3.81-7.44,9.19-14.02,15.81-19.12.7-.54,1.06-1.39.58-2.22-.39-.69-1.53-1.12-2.22-.58-7.08,5.45-12.9,12.32-16.98,20.29h2.81l-9.75-17.15c-1.03-1.82-3.84-.18-2.81,1.64"/>
    </g>
  </g>
</svg>